<?xml version="1.0" encoding="UTF-8" standal?>
<!-- Created with Inkscape (http://www.inkscape.org/) -->

<svg
   width="82.631607mm"
   height="123.62858mm"
   viewBox="0 0 82.631608 123.62858"
   version="1.1"
   id="svg1"
   xml:space="preserve"
   xmlns="http://www.w3.org/2000/svg"
   xmlns:svg="http://www.w3.org/2000/svg"><defs
     id="defs1" /><g
     id="layer1"
     transform="translate(-176.26017,-52.13107)"><path
       style="fill:#24221c;fill-opacity:0;stroke:#000000;stroke-width:0.2;stroke-linejoin:round"
       d="m 176.36017,52.34772 0.14848,122.66517 82.20482,0.64676 0.0783,-122.522052 z"
       id="building" /><g
       id="g87"
       transform="matrix(0.9730275,0,0,1.0000224,4.7735099,-0.00252745)"><path
         style="fill:#24221c;fill-opacity:0;stroke:#000000;stroke-width:0.2;stroke-linejoin:round"
         d="m 177.80195,58.727756 12.5534,-0.216017 0.16845,-6.279309 -12.6832,0.249772 z"
         id="f1r1" /><path
         style="fill:#24221c;fill-opacity:0;stroke:#000000;stroke-width:0.2;stroke-linejoin:round"
         d="m 177.57286,64.888615 12.55512,0.05657 0.30474,-6.274172 -12.68563,-0.02564 z"
         id="f1r2" /><path
         style="fill:#24221c;fill-opacity:0;stroke:#000000;stroke-width:0.2;stroke-linejoin:round"
         d="m 177.62518,71.17725 12.5549,-0.09264 0.23015,-6.277349 -12.68504,0.125118 z"
         id="f1r3" /><path
         style="fill:#24221c;fill-opacity:0;stroke:#000000;stroke-width:0.2;stroke-linejoin:round"
         d="m 177.80195,58.727756 12.5534,-0.216017 0.16845,-6.279309 -12.6832,0.249772 z"
         id="path1" /><path
         style="fill:#24221c;fill-opacity:0;stroke:#000000;stroke-width:0.2;stroke-linejoin:round"
         d="m 177.57286,64.888615 12.55512,0.05657 0.30474,-6.274172 -12.68563,-0.02564 z"
         id="path2" /><path
         style="fill:#24221c;fill-opacity:0;stroke:#000000;stroke-width:0.2;stroke-linejoin:round"
         d="m 177.62518,71.17725 12.5549,-0.09264 0.23015,-6.277349 -12.68504,0.125118 z"
         id="f1r4" /><path
         style="fill:#24221c;fill-opacity:0;stroke:#000000;stroke-width:0.2;stroke-linejoin:round"
         d="m 177.6818,77.498685 12.55339,-0.216017 0.16845,-6.279309 -12.68319,0.249772 z"
         id="path3" /><path
         style="fill:#24221c;fill-opacity:0;stroke:#000000;stroke-width:0.2;stroke-linejoin:round"
         d="m 177.4527,83.659544 12.55513,0.05657 0.30474,-6.274172 -12.68563,-0.02564 z"
         id="f1r5" /><path
         style="fill:#24221c;fill-opacity:0;stroke:#000000;stroke-width:0.2;stroke-linejoin:round"
         d="m 177.50502,89.948179 12.5549,-0.09264 0.23015,-6.277349 -12.68503,0.125119 z"
         id="f1r12" /><path
         style="fill:#24221c;fill-opacity:0;stroke:#000000;stroke-width:0.2;stroke-linejoin:round"
         d="m 177.56165,96.269611 12.5534,-0.216016 0.16845,-6.27931 -12.6832,0.249772 z"
         id="f1r13" /><path
         style="fill:#24221c;fill-opacity:0;stroke:#000000;stroke-width:0.2;stroke-linejoin:round"
         d="m 177.33256,102.43047 12.55512,0.0566 0.30474,-6.274173 -12.68563,-0.02564 z"
         id="f1r14" /><path
         style="fill:#24221c;fill-opacity:0;stroke:#000000;stroke-width:0.2;stroke-linejoin:round"
         d="m 177.38487,108.71911 12.55491,-0.0927 0.23015,-6.27734 -12.68504,0.12511 z"
         id="f1r15" /><path
         style="fill:#24221c;fill-opacity:0;stroke:#000000;stroke-width:0.2;stroke-linejoin:round"
         d="m 177.25632,115.08151 12.5534,-0.21601 0.16845,-6.27931 -12.6832,0.24977 z"
         id="f1r16" /><path
         style="fill:#24221c;fill-opacity:0;stroke:#000000;stroke-width:0.2;stroke-linejoin:round"
         d="m 177.02723,121.24237 12.55512,0.0566 0.30474,-6.27418 -12.68563,-0.0256 z"
         id="f1r17" /><path
         style="fill:#24221c;fill-opacity:0;stroke:#000000;stroke-width:0.2;stroke-linejoin:round"
         d="m 177.07955,127.531 12.5549,-0.0926 0.23015,-6.27734 -12.68504,0.12511 z"
         id="f1r18" /><path
         style="fill:#24221c;fill-opacity:0;stroke:#000000;stroke-width:0.2;stroke-linejoin:round"
         d="m 177.4754,134.06875 12.55339,-0.21602 0.16846,-6.2793 -12.6832,0.24976 z"
         id="f1r19" /><path
         style="fill:#24221c;fill-opacity:0;stroke:#000000;stroke-width:0.2;stroke-linejoin:round"
         d="m 177.24631,140.22961 12.55512,0.0566 0.30474,-6.27418 -12.68563,-0.0256 z"
         id="f1r20" /><path
         style="fill:#24221c;fill-opacity:0;stroke:#000000;stroke-width:0.2;stroke-linejoin:round"
         d="m 177.29862,146.51824 12.5549,-0.0926 0.23016,-6.27734 -12.68504,0.12511 z"
         id="f1r21" /><path
         style="fill:#24221c;fill-opacity:0;stroke:#000000;stroke-width:0.2;stroke-linejoin:round"
         d="m 177.37574,152.93226 12.55339,-0.21601 0.16846,-6.27931 -12.6832,0.24976 z"
         id="f1r22" /><path
         style="fill:#24221c;fill-opacity:0;stroke:#000000;stroke-width:0.2;stroke-linejoin:round"
         d="m 177.14665,159.09312 12.55512,0.0566 0.30474,-6.27418 -12.68563,-0.0256 z"
         id="f1r23" /><path
         style="fill:#24221c;fill-opacity:0;stroke:#000000;stroke-width:0.2;stroke-linejoin:round"
         d="m 177.19896,165.38176 12.5549,-0.0927 0.23016,-6.27734 -12.68504,0.12512 z"
         id="f1r24" /><path
         style="fill:#24221c;fill-opacity:0;stroke:#000000;stroke-width:0.2;stroke-linejoin:round"
         d="m 247.76298,59.759051 12.55339,-0.216017 0.16845,-6.279309 -12.68319,0.249772 z"
         id="f1r25" /><path
         style="fill:#24221c;fill-opacity:0;stroke:#000000;stroke-width:0.2;stroke-linejoin:round"
         d="m 247.53389,65.91991 12.55512,0.05657 0.30474,-6.274172 -12.68563,-0.02564 z"
         id="f1r26" /><path
         style="fill:#24221c;fill-opacity:0;stroke:#000000;stroke-width:0.2;stroke-linejoin:round"
         d="m 247.5862,72.208545 12.5549,-0.09264 0.23016,-6.277349 -12.68504,0.125118 z"
         id="f1r27" /><path
         style="fill:#24221c;fill-opacity:0;stroke:#000000;stroke-width:0.2;stroke-linejoin:round"
         d="m 247.76298,59.759051 12.55339,-0.216017 0.16845,-6.279309 -12.68319,0.249772 z"
         id="f1r28" /><path
         style="fill:#24221c;fill-opacity:0;stroke:#000000;stroke-width:0.2;stroke-linejoin:round"
         d="m 247.53389,65.91991 12.55512,0.05657 0.30474,-6.274172 -12.68563,-0.02564 z"
         id="f1r29" /><path
         style="fill:#24221c;fill-opacity:0;stroke:#000000;stroke-width:0.2;stroke-linejoin:round"
         d="m 247.5862,72.208545 12.5549,-0.09264 0.23016,-6.277349 -12.68504,0.125118 z"
         id="f1r30" /><path
         style="fill:#24221c;fill-opacity:0;stroke:#000000;stroke-width:0.2;stroke-linejoin:round"
         d="m 247.64282,78.52998 12.5534,-0.216016 0.16845,-6.27931 -12.6832,0.249772 z"
         id="f1r31" /><path
         style="fill:#24221c;fill-opacity:0;stroke:#000000;stroke-width:0.2;stroke-linejoin:round"
         d="m 247.41373,84.69084 12.55512,0.05657 0.30474,-6.274173 -12.68563,-0.02564 z"
         id="f1r32" /><path
         style="fill:#24221c;fill-opacity:0;stroke:#000000;stroke-width:0.2;stroke-linejoin:round"
         d="m 247.46605,90.979475 12.5549,-0.09264 0.23015,-6.277352 -12.68504,0.125119 z"
         id="f1r33" /><path
         style="fill:#24221c;fill-opacity:0;stroke:#000000;stroke-width:0.2;stroke-linejoin:round"
         d="m 247.52268,97.300909 12.55339,-0.216022 0.16845,-6.279308 -12.68319,0.249773 z"
         id="f1r34" /><path
         style="fill:#24221c;fill-opacity:0;stroke:#000000;stroke-width:0.2;stroke-linejoin:round"
         d="m 247.29358,103.46177 12.55512,0.0566 0.30475,-6.274168 -12.68563,-0.02564 z"
         id="f1r35" /><path
         style="fill:#24221c;fill-opacity:0;stroke:#000000;stroke-width:0.2;stroke-linejoin:round"
         d="m 247.3459,109.7504 12.5549,-0.0926 0.23015,-6.27735 -12.68504,0.12512 z"
         id="f1r36" /><path
         style="fill:#24221c;fill-opacity:0;stroke:#000000;stroke-width:0.2;stroke-linejoin:round"
         d="m 247.21735,116.1128 12.55339,-0.21601 0.16846,-6.27931 -12.6832,0.24977 z"
         id="f1r37" /><path
         style="fill:#24221c;fill-opacity:0;stroke:#000000;stroke-width:0.2;stroke-linejoin:round"
         d="m 246.98826,122.27366 12.55512,0.0566 0.30474,-6.27418 -12.68563,-0.0256 z"
         id="f1r38" /><path
         style="fill:#24221c;fill-opacity:0;stroke:#000000;stroke-width:0.2;stroke-linejoin:round"
         d="m 247.04057,128.5623 12.5549,-0.0926 0.23016,-6.27734 -12.68504,0.12512 z"
         id="f1r39" /><path
         style="fill:#24221c;fill-opacity:0;stroke:#000000;stroke-width:0.2;stroke-linejoin:round"
         d="m 247.43642,135.10004 12.5534,-0.21601 0.16845,-6.27931 -12.6832,0.24976 z"
         id="f1r40" /><path
         style="fill:#24221c;fill-opacity:0;stroke:#000000;stroke-width:0.2;stroke-linejoin:round"
         d="m 247.20733,141.2609 12.55512,0.0566 0.30474,-6.27417 -12.68563,-0.0256 z"
         id="f1r41" /><path
         style="fill:#24221c;fill-opacity:0;stroke:#000000;stroke-width:0.2;stroke-linejoin:round"
         d="m 247.25965,147.54954 12.5549,-0.0927 0.23015,-6.27734 -12.68504,0.12512 z"
         id="f1r42" /><path
         style="fill:#24221c;fill-opacity:0;stroke:#000000;stroke-width:0.2;stroke-linejoin:round"
         d="m 247.33676,153.96356 12.5534,-0.21602 0.16845,-6.2793 -12.6832,0.24976 z"
         id="f1r43" /><path
         style="fill:#24221c;fill-opacity:0;stroke:#000000;stroke-width:0.2;stroke-linejoin:round"
         d="m 247.10767,160.12442 12.55512,0.0566 0.30474,-6.27418 -12.68563,-0.0256 z"
         id="f1r44" /><path
         style="fill:#24221c;fill-opacity:0;stroke:#000000;stroke-width:0.2;stroke-linejoin:round"
         d="m 247.15999,166.41305 12.5549,-0.0926 0.23015,-6.27734 -12.68504,0.12511 z"
         id="f1r45" /><path
         style="fill:#24221c;fill-opacity:0;stroke:#000000;stroke-width:0.2;stroke-linejoin:round"
         d="m 197.23774,65.976425 12.55512,0.05657 0.30474,-6.274173 -12.68563,-0.02564 z"
         id="f1r47" /><path
         style="fill:#24221c;fill-opacity:0;stroke:#000000;stroke-width:0.2;stroke-linejoin:round"
         d="m 197.29005,72.26506 12.5549,-0.09264 0.23016,-6.277349 -12.68504,0.125118 z"
         id="f1r48" /><path
         style="fill:#24221c;fill-opacity:0;stroke:#000000;stroke-width:0.2;stroke-linejoin:round"
         d="m 209.56088,173.29635 12.55339,-0.21602 0.16845,-6.27931 -12.6832,0.24977 z"
         id="f1r49" /><path
         style="fill:#24221c;fill-opacity:0;stroke:#000000;stroke-width:0.2;stroke-linejoin:round"
         d="m 197.23774,65.976425 12.55512,0.05657 0.30474,-6.274173 -12.68563,-0.02564 z"
         id="f1r50" /><path
         style="fill:#24221c;fill-opacity:0;stroke:#000000;stroke-width:0.2;stroke-linejoin:round"
         d="m 197.29005,72.26506 12.5549,-0.09264 0.23016,-6.277349 -12.68504,0.125118 z"
         id="f1r51" /><path
         style="fill:#24221c;fill-opacity:0;stroke:#000000;stroke-width:0.2;stroke-linejoin:round"
         d="m 197.34667,78.586495 12.5534,-0.216017 0.16845,-6.279309 -12.6832,0.249772 z"
         id="f1r52" /><path
         style="fill:#24221c;fill-opacity:0;stroke:#000000;stroke-width:0.2;stroke-linejoin:round"
         d="m 197.11758,84.747354 12.55512,0.05657 0.30474,-6.274172 -12.68563,-0.02564 z"
         id="f1r53" /><path
         style="fill:#24221c;fill-opacity:0;stroke:#000000;stroke-width:0.2;stroke-linejoin:round"
         d="m 197.1699,91.035989 12.5549,-0.09264 0.23015,-6.277352 -12.68504,0.125118 z"
         id="f1r54" /><path
         style="fill:#24221c;fill-opacity:0;stroke:#000000;stroke-width:0.2;stroke-linejoin:round"
         d="m 197.22653,97.357424 12.55339,-0.216022 0.16845,-6.279308 -12.68319,0.249773 z"
         id="f1r55" /><path
         style="fill:#24221c;fill-opacity:0;stroke:#000000;stroke-width:0.2;stroke-linejoin:round"
         d="m 196.99744,103.51828 12.55512,0.0566 0.30474,-6.274173 -12.68563,-0.02564 z"
         id="f1r56" /><path
         style="fill:#24221c;fill-opacity:0;stroke:#000000;stroke-width:0.2;stroke-linejoin:round"
         d="m 197.04975,109.80692 12.5549,-0.0926 0.23016,-6.27735 -12.68504,0.12511 z"
         id="f1r57" /><path
         style="fill:#24221c;fill-opacity:0;stroke:#000000;stroke-width:0.2;stroke-linejoin:round"
         d="m 196.9212,116.16932 12.5534,-0.21601 0.16845,-6.27931 -12.6832,0.24977 z"
         id="f1r58" /><path
         style="fill:#24221c;fill-opacity:0;stroke:#000000;stroke-width:0.2;stroke-linejoin:round"
         d="m 196.69211,122.33018 12.55512,0.0566 0.30474,-6.27418 -12.68563,-0.0256 z"
         id="f1r59" /><path
         style="fill:#24221c;fill-opacity:0;stroke:#000000;stroke-width:0.2;stroke-linejoin:round"
         d="m 196.74442,128.61882 12.55491,-0.0926 0.23015,-6.27734 -12.68504,0.12512 z"
         id="f1r60" /><path
         style="fill:#24221c;fill-opacity:0;stroke:#000000;stroke-width:0.2;stroke-linejoin:round"
         d="m 197.14028,135.15656 12.55339,-0.21601 0.16845,-6.27931 -12.68319,0.24976 z"
         id="f1r61" /><path
         style="fill:#24221c;fill-opacity:0;stroke:#000000;stroke-width:0.2;stroke-linejoin:round"
         d="m 196.91118,141.31742 12.55512,0.0566 0.30474,-6.27418 -12.68563,-0.0256 z"
         id="f1r62" /><path
         style="fill:#24221c;fill-opacity:0;stroke:#000000;stroke-width:0.2;stroke-linejoin:round"
         d="m 196.9635,147.60606 12.5549,-0.0927 0.23015,-6.27734 -12.68503,0.12512 z"
         id="f1r63" /><path
         style="fill:#24221c;fill-opacity:0;stroke:#000000;stroke-width:0.2;stroke-linejoin:round"
         d="m 197.04062,154.02007 12.55339,-0.21601 0.16845,-6.27931 -12.6832,0.24977 z"
         id="f1r64" /><path
         style="fill:#24221c;fill-opacity:0;stroke:#000000;stroke-width:0.2;stroke-linejoin:round"
         d="m 196.81152,160.18094 12.55512,0.0566 0.30474,-6.27418 -12.68563,-0.0256 z"
         id="f1r65" /><path
         style="fill:#24221c;fill-opacity:0;stroke:#000000;stroke-width:0.2;stroke-linejoin:round"
         d="m 196.86384,166.46957 12.5549,-0.0926 0.23015,-6.27735 -12.68504,0.12512 z"
         id="f1r66" /><path
         style="fill:#24221c;fill-opacity:0;stroke:#000000;stroke-width:0.2;stroke-linejoin:round"
         d="m 223.50965,59.880702 12.5534,-0.216016 0.16845,-6.279309 -12.6832,0.249771 z"
         id="f1r67" /><path
         style="fill:#24221c;fill-opacity:0;stroke:#000000;stroke-width:0.2;stroke-linejoin:round"
         d="m 223.28056,66.041562 12.55512,0.05657 0.30474,-6.274173 -12.68563,-0.02564 z"
         id="f1r68" /><path
         style="fill:#24221c;fill-opacity:0;stroke:#000000;stroke-width:0.2;stroke-linejoin:round"
         d="m 223.33288,72.330197 12.5549,-0.09264 0.23015,-6.277349 -12.68504,0.125118 z"
         id="f1r69" /><path
         style="fill:#24221c;fill-opacity:0;stroke:#000000;stroke-width:0.2;stroke-linejoin:round"
         d="m 223.50965,59.880702 12.5534,-0.216016 0.16845,-6.279309 -12.6832,0.249771 z"
         id="f1r70" /><path
         style="fill:#24221c;fill-opacity:0;stroke:#000000;stroke-width:0.2;stroke-linejoin:round"
         d="m 223.28056,66.041562 12.55512,0.05657 0.30474,-6.274173 -12.68563,-0.02564 z"
         id="f1r71" /><path
         style="fill:#24221c;fill-opacity:0;stroke:#000000;stroke-width:0.2;stroke-linejoin:round"
         d="m 223.33288,72.330197 12.5549,-0.09264 0.23015,-6.277349 -12.68504,0.125118 z"
         id="f1r72" /><path
         style="fill:#24221c;fill-opacity:0;stroke:#000000;stroke-width:0.2;stroke-linejoin:round"
         d="m 223.3895,78.651632 12.55339,-0.216017 0.16845,-6.279309 -12.68319,0.249772 z"
         id="f1r73" /><path
         style="fill:#24221c;fill-opacity:0;stroke:#000000;stroke-width:0.2;stroke-linejoin:round"
         d="m 223.1604,84.812491 12.55513,0.05657 0.30474,-6.274172 -12.68563,-0.02564 z"
         id="f1r74" /><path
         style="fill:#24221c;fill-opacity:0;stroke:#000000;stroke-width:0.2;stroke-linejoin:round"
         d="m 223.21272,91.101126 12.5549,-0.09264 0.23015,-6.277352 -12.68503,0.125118 z"
         id="f1r75" /><path
         style="fill:#24221c;fill-opacity:0;stroke:#000000;stroke-width:0.2;stroke-linejoin:round"
         d="m 223.26935,97.422561 12.55339,-0.216022 0.16846,-6.279308 -12.6832,0.249773 z"
         id="f1r76" /><path
         style="fill:#24221c;fill-opacity:0;stroke:#000000;stroke-width:0.2;stroke-linejoin:round"
         d="m 223.04026,103.58342 12.55512,0.0566 0.30474,-6.274176 -12.68563,-0.02564 z"
         id="f1r77" /><path
         style="fill:#24221c;fill-opacity:0;stroke:#000000;stroke-width:0.2;stroke-linejoin:round"
         d="m 223.09258,109.87207 12.5549,-0.0926 0.23015,-6.27735 -12.68504,0.12511 z"
         id="f1r78" /><path
         style="fill:#24221c;fill-opacity:0;stroke:#000000;stroke-width:0.2;stroke-linejoin:round"
         d="m 222.96403,116.23447 12.55339,-0.21602 0.16845,-6.2793 -12.68319,0.24977 z"
         id="f1r79" /><path
         style="fill:#24221c;fill-opacity:0;stroke:#000000;stroke-width:0.2;stroke-linejoin:round"
         d="m 222.73493,122.39533 12.55513,0.0566 0.30473,-6.27418 -12.68563,-0.0256 z"
         id="f1r80" /><path
         style="fill:#24221c;fill-opacity:0;stroke:#000000;stroke-width:0.2;stroke-linejoin:round"
         d="m 222.78725,128.68396 12.5549,-0.0926 0.23015,-6.27734 -12.68503,0.12511 z"
         id="f1r81" /><path
         style="fill:#24221c;fill-opacity:0;stroke:#000000;stroke-width:0.2;stroke-linejoin:round"
         d="m 223.1831,135.2217 12.5534,-0.21601 0.16845,-6.27931 -12.6832,0.24976 z"
         id="f1r82" /><path
         style="fill:#24221c;fill-opacity:0;stroke:#000000;stroke-width:0.2;stroke-linejoin:round"
         d="m 222.95401,141.38256 12.55512,0.0566 0.30474,-6.27417 -12.68563,-0.0256 z"
         id="f1r83" /><path
         style="fill:#24221c;fill-opacity:0;stroke:#000000;stroke-width:0.2;stroke-linejoin:round"
         d="m 223.00632,147.6712 12.5549,-0.0926 0.23016,-6.27734 -12.68504,0.12512 z"
         id="f1r84" /><path
         style="fill:#24221c;fill-opacity:0;stroke:#000000;stroke-width:0.2;stroke-linejoin:round"
         d="m 223.08344,154.08522 12.55339,-0.21602 0.16846,-6.2793 -12.6832,0.24976 z"
         id="f1r85" /><path
         style="fill:#24221c;fill-opacity:0;stroke:#000000;stroke-width:0.2;stroke-linejoin:round"
         d="m 222.85435,160.24608 12.55512,0.0566 0.30474,-6.27418 -12.68563,-0.0256 z"
         id="f1r86" /><path
         style="fill:#24221c;fill-opacity:0;stroke:#000000;stroke-width:0.2;stroke-linejoin:round"
         d="m 222.90666,166.53471 12.5549,-0.0926 0.23016,-6.27734 -12.68504,0.12511 z"
         id="f1r87" /></g></g></svg>
